# Blender v2.79 (sub 0) OBJ File: ''
# www.blender.org
mtllib flower.mtl
o archmodels66_050_002_258.002
v 50.837448 6.721025 5.137129
v 50.748894 6.713405 5.006166
v 50.663635 6.617303 5.151195
v 50.951321 6.833531 5.056061
v 50.814175 6.810465 4.841884
v 50.585938 6.706505 4.751492
v 50.550686 6.615253 4.920864
v 50.095070 7.082274 3.345599
v 50.248161 7.000780 3.577381
v 50.290318 7.084329 3.339684
v 49.898911 7.080547 3.388852
v 50.035320 7.007018 3.577011
v 49.993618 6.913192 3.804036
v 49.820259 7.024237 3.604674
v 49.760693 6.949470 3.814569
v 50.224800 6.901743 3.812397
v 51.120193 7.163427 4.251927
v 50.894348 6.984238 4.421218
v 51.143509 7.129738 4.467674
v 51.076962 7.173548 4.056350
v 50.887817 7.034892 4.199008
v 50.657990 6.933025 4.137521
v 50.872208 7.068971 3.981024
v 50.661057 6.993403 3.904227
v 50.648952 6.874602 4.364728
v 49.198895 6.911591 4.489349
v 49.447582 6.876382 4.247984
v 49.198341 6.987247 4.270105
v 49.242897 6.818207 4.699964
v 49.459713 6.803762 4.453683
v 49.719574 6.740553 4.429846
v 49.499191 6.719135 4.648117
v 49.748318 6.654745 4.609248
v 49.701691 6.801895 4.233610
v 50.400909 6.704579 4.490062
v 50.616421 6.808379 4.571695
v 50.419785 6.780238 4.311600
v 50.178852 6.639888 4.420655
v 50.168163 6.587457 4.560297
v 50.378498 6.613606 4.641028
v 50.646572 7.116385 3.445367
v 50.453453 7.019869 3.614909
v 50.647339 7.057698 3.675224
v 50.476540 7.092547 3.374692
v 50.443970 6.944184 3.855760
v 49.715343 7.093101 3.469396
v 49.536449 7.091439 3.592036
v 49.605339 7.041646 3.657151
v 49.519913 6.992174 3.851004
v 49.399796 7.089569 3.742564
v 49.293594 7.086709 3.910346
v 49.997353 6.441868 4.836170
v 49.792458 6.561204 4.781710
v 49.832264 6.487733 4.955145
v 50.161301 6.431284 4.769856
v 49.981930 6.507595 4.709531
v 49.963158 6.600624 4.562468
v 50.164795 6.508737 4.678629
v 49.958042 6.831766 4.033270
v 49.714817 6.877693 4.026920
v 50.200256 6.813632 4.049265
v 49.945457 6.742697 4.239460
v 50.187679 6.713739 4.257803
v 51.009789 7.174959 3.880769
v 50.913754 7.152786 3.720873
v 50.836895 7.099204 3.770036
v 50.799175 7.139319 3.567414
v 50.428471 6.867522 4.095087
v 49.462189 6.939966 4.047609
v 49.223339 7.050389 4.081179
v 51.037231 6.960759 4.909835
v 50.866409 6.902935 4.639869
v 51.107258 7.057866 4.698922
v 49.336884 6.715010 4.865058
v 49.464680 6.621913 4.950501
v 49.571270 6.633508 4.821208
v 49.646763 6.544910 4.986312
v 50.363689 6.517706 4.788106
v 50.332386 6.471935 4.942221
v 50.493462 6.542966 5.087619
v 49.951366 6.673603 4.411915
vt 0.176900 0.827300
vt 0.225200 0.775400
vt 0.258700 0.850900
vt 0.121800 0.778900
vt 0.196300 0.692900
vt 0.309400 0.676900
vt 0.324600 0.760200
vt 0.586500 0.066900
vt 0.501000 0.166400
vt 0.501200 0.055500
vt 0.669600 0.092900
vt 0.594500 0.174800
vt 0.601200 0.282400
vt 0.688500 0.193500
vt 0.704200 0.293700
vt 0.500900 0.277200
vt 0.061800 0.401500
vt 0.169300 0.494100
vt 0.043400 0.496300
vt 0.096000 0.317400
vt 0.178900 0.394800
vt 0.292200 0.389700
vt 0.200100 0.299300
vt 0.302600 0.284900
vt 0.289500 0.491800
vt 0.939000 0.600800
vt 0.828900 0.494100
vt 0.948400 0.500000
vt 0.910300 0.697900
vt 0.815700 0.589100
vt 0.699300 0.577700
vt 0.789000 0.680200
vt 0.677300 0.660900
vt 0.713100 0.489400
vt 0.402400 0.573600
vt 0.296400 0.587500
vt 0.397800 0.489000
vt 0.500400 0.563700
vt 0.499800 0.628800
vt 0.409200 0.648600
vt 0.337400 0.078300
vt 0.409400 0.167900
vt 0.318600 0.181300
vt 0.418200 0.058000
vt 0.402100 0.277800
vt 0.745900 0.134400
vt 0.817900 0.190500
vt 0.781500 0.222800
vt 0.810700 0.311800
vt 0.874100 0.257500
vt 0.918900 0.333100
vt 0.563000 0.769500
vt 0.652400 0.741600
vt 0.625900 0.821000
vt 0.500100 0.733800
vt 0.573300 0.709500
vt 0.585000 0.638300
vt 0.499100 0.687000
vt 0.605500 0.389300
vt 0.713600 0.393600
vt 0.500900 0.387800
vt 0.604900 0.487100
vt 0.500800 0.487100
vt 0.137000 0.243100
vt 0.194300 0.179300
vt 0.227800 0.208700
vt 0.258900 0.120500
vt 0.398000 0.387600
vt 0.826800 0.402000
vt 0.942700 0.412400
vt 0.076500 0.702600
vt 0.176400 0.596300
vt 0.049300 0.602500
vt 0.857700 0.774600
vt 0.791000 0.819700
vt 0.750300 0.761200
vt 0.705800 0.837100
vt 0.416100 0.721500
vt 0.423000 0.793400
vt 0.341000 0.840300
vt 0.596800 0.567200
vn -0.5162 0.7982 0.3105
vn -0.5075 0.8159 0.2770
vn -0.4768 0.8461 0.2384
vn -0.5705 0.7619 0.3067
vn -0.5180 0.8095 0.2764
vn -0.5339 0.7767 0.3343
vn -0.5414 0.8053 0.2415
vn 0.0209 0.9491 0.3143
vn -0.0436 0.9329 0.3574
vn -0.0445 0.9422 0.3321
vn 0.0931 0.9537 0.2858
vn 0.0789 0.9358 0.3436
vn 0.1013 0.9239 0.3690
vn 0.1762 0.9243 0.3385
vn 0.1858 0.9104 0.3697
vn -0.0960 0.9320 0.3495
vn -0.5083 0.8438 0.1723
vn -0.4974 0.8380 0.2243
vn -0.5108 0.8433 0.1671
vn -0.4979 0.8506 0.1690
vn -0.4710 0.8615 0.1895
vn -0.3838 0.8976 0.2169
vn -0.4528 0.8680 0.2039
vn -0.3382 0.9065 0.2525
vn -0.4336 0.8729 0.2238
vn 0.3985 0.8671 0.2988
vn 0.3573 0.8849 0.2987
vn 0.4011 0.8558 0.3266
vn 0.3955 0.8656 0.3069
vn 0.3371 0.8901 0.3067
vn 0.2644 0.9098 0.3199
vn 0.3484 0.8774 0.3300
vn 0.2858 0.8796 0.3804
vn 0.2357 0.9246 0.2991
vn -0.4103 0.8405 0.3540
vn -0.4710 0.8420 0.2630
vn -0.3931 0.8584 0.3295
vn -0.1304 0.9280 0.3490
vn -0.1350 0.8825 0.4506
vn -0.4266 0.7796 0.4585
vn -0.2723 0.9297 0.2478
vn -0.2145 0.9354 0.2810
vn -0.2955 0.9209 0.2542
vn -0.1664 0.9433 0.2872
vn -0.2513 0.9288 0.2723
vn 0.2343 0.8950 0.3795
vn -0.0061 1.0000 0.0005
vn 0.2767 0.8923 0.3567
vn 0.3506 0.8770 0.3284
vn 0.3130 0.9240 0.2196
vn 0.4316 0.8388 0.3318
vn 0.3684 0.8427 0.3926
vn 0.3486 0.8720 0.3437
vn 0.3761 0.8816 0.2852
vn -0.2144 0.6973 0.6840
vn 0.2516 0.8368 0.4864
vn 0.2117 0.8661 0.4529
vn -0.1512 0.8118 0.5641
vn 0.1081 0.9216 0.3729
vn 0.2003 0.9176 0.3433
vn -0.1117 0.9172 0.3824
vn 0.1468 0.9170 0.3709
vn -0.1084 0.9165 0.3850
vn -0.4918 0.8495 0.1907
vn 0.3192 0.8929 -0.3175
vn -0.4128 0.8826 0.2247
vn -0.3492 0.9047 0.2439
vn -0.2987 0.9024 0.3106
vn 0.3630 0.8759 0.3180
vn 0.4216 0.8407 0.3398
vn -0.5881 0.7711 0.2440
vn -0.4951 0.8359 0.2371
vn -0.5433 0.8190 0.1847
vn 0.3668 0.8614 0.3514
vn 0.2467 0.8075 0.5359
vn 0.3114 0.8988 0.3086
vn 0.3231 0.8875 0.3286
vn -0.4759 0.8353 0.2753
vn -0.4494 0.8809 0.1484
vn -0.4783 0.8573 0.1905
vn 0.2010 0.8996 0.3878
usemtl wire_176026026.002
s 1
f 1/1/1 2/2/2 3/3/3
f 4/4/4 5/5/5 2/2/2
f 6/6/6 2/2/2 5/5/5
f 7/7/7 3/3/3 2/2/2
f 8/8/8 9/9/9 10/10/10
f 11/11/11 12/12/12 8/8/8
f 13/13/13 14/14/14 15/15/15
f 16/16/16 12/12/12 13/13/13
f 17/17/17 18/18/18 19/19/19
f 20/20/20 21/21/21 17/17/17
f 22/22/22 23/23/23 24/24/24
f 25/25/25 21/21/21 22/22/22
f 26/26/26 27/27/27 28/28/28
f 29/29/29 30/30/30 26/26/26
f 31/31/31 32/32/32 33/33/33
f 34/34/34 30/30/30 31/31/31
f 25/25/25 35/35/35 36/36/36
f 37/37/37 38/38/38 35/35/35
f 39/39/39 35/35/35 38/38/38
f 40/40/40 36/36/36 35/35/35
f 41/41/41 42/42/42 43/43/43
f 44/44/44 9/9/9 42/42/42
f 16/16/16 42/42/42 9/9/9
f 45/45/45 43/43/43 42/42/42
f 46/46/46 14/14/14 11/11/11
f 47/47/47 48/48/48 46/46/46
f 49/49/49 50/50/50 51/51/51
f 15/15/15 48/48/48 49/49/49
f 52/52/52 53/53/53 54/54/54
f 55/55/55 56/56/56 52/52/52
f 57/57/57 58/58/58 39/39/39
f 57/57/57 53/53/53 56/56/56
f 15/15/15 59/59/59 13/13/13
f 34/34/34 59/59/59 60/60/60
f 61/61/61 62/62/62 63/63/63
f 61/61/61 13/13/13 59/59/59
f 64/64/64 23/23/23 20/20/20
f 65/65/65 66/66/66 64/64/64
f 43/43/43 67/67/67 41/41/41
f 24/24/24 66/66/66 43/43/43
f 61/61/61 45/45/45 16/16/16
f 63/63/63 68/68/68 61/61/61
f 22/22/22 37/37/37 25/25/25
f 24/24/24 68/68/68 22/22/22
f 51/51/51 69/69/69 49/49/49
f 70/70/70 27/27/27 69/69/69
f 34/34/34 69/69/69 27/27/27
f 60/60/60 49/49/49 69/69/69
f 71/71/71 72/72/72 5/5/5
f 73/73/73 18/18/18 72/72/72
f 25/25/25 72/72/72 18/18/18
f 36/36/36 5/5/5 72/72/72
f 74/74/74 32/32/32 29/29/29
f 75/75/75 76/76/76 74/74/74
f 53/53/53 77/77/77 54/54/54
f 33/33/33 76/76/76 53/53/53
f 58/58/58 40/40/40 39/39/39
f 55/55/55 78/78/78 58/58/58
f 7/7/7 79/79/79 80/80/80
f 6/6/6 78/78/78 7/7/7
f 38/38/38 57/57/57 39/39/39
f 63/63/63 81/81/81 38/38/38
f 31/31/31 62/62/62 34/34/34
f 33/33/33 81/81/81 31/31/31
f 1/1/1 4/4/4 2/2/2
f 4/4/4 71/71/71 5/5/5
f 6/6/6 7/7/7 2/2/2
f 7/7/7 80/80/80 3/3/3
f 8/8/8 12/12/12 9/9/9
f 11/11/11 14/14/14 12/12/12
f 13/13/13 12/12/12 14/14/14
f 16/16/16 9/9/9 12/12/12
f 17/17/17 21/21/21 18/18/18
f 20/20/20 23/23/23 21/21/21
f 22/22/22 21/21/21 23/23/23
f 25/25/25 18/18/18 21/21/21
f 26/26/26 30/30/30 27/27/27
f 29/29/29 32/32/32 30/30/30
f 31/31/31 30/30/30 32/32/32
f 34/34/34 27/27/27 30/30/30
f 25/25/25 37/37/37 35/35/35
f 37/37/37 63/63/63 38/38/38
f 39/39/39 40/40/40 35/35/35
f 40/40/40 6/6/6 36/36/36
f 41/41/41 44/44/44 42/42/42
f 44/44/44 10/10/10 9/9/9
f 16/16/16 45/45/45 42/42/42
f 45/45/45 24/24/24 43/43/43
f 46/46/46 48/48/48 14/14/14
f 47/47/47 50/50/50 48/48/48
f 49/49/49 48/48/48 50/50/50
f 15/15/15 14/14/14 48/48/48
f 52/52/52 56/56/56 53/53/53
f 55/55/55 58/58/58 56/56/56
f 57/57/57 56/56/56 58/58/58
f 57/57/57 33/33/33 53/53/53
f 15/15/15 60/60/60 59/59/59
f 34/34/34 62/62/62 59/59/59
f 61/61/61 59/59/59 62/62/62
f 61/61/61 16/16/16 13/13/13
f 64/64/64 66/66/66 23/23/23
f 65/65/65 67/67/67 66/66/66
f 43/43/43 66/66/66 67/67/67
f 24/24/24 23/23/23 66/66/66
f 61/61/61 68/68/68 45/45/45
f 63/63/63 37/37/37 68/68/68
f 22/22/22 68/68/68 37/37/37
f 24/24/24 45/45/45 68/68/68
f 51/51/51 70/70/70 69/69/69
f 70/70/70 28/28/28 27/27/27
f 34/34/34 60/60/60 69/69/69
f 60/60/60 15/15/15 49/49/49
f 71/71/71 73/73/73 72/72/72
f 73/73/73 19/19/19 18/18/18
f 25/25/25 36/36/36 72/72/72
f 36/36/36 6/6/6 5/5/5
f 74/74/74 76/76/76 32/32/32
f 75/75/75 77/77/77 76/76/76
f 53/53/53 76/76/76 77/77/77
f 33/33/33 32/32/32 76/76/76
f 58/58/58 78/78/78 40/40/40
f 55/55/55 79/79/79 78/78/78
f 7/7/7 78/78/78 79/79/79
f 6/6/6 40/40/40 78/78/78
f 38/38/38 81/81/81 57/57/57
f 63/63/63 62/62/62 81/81/81
f 31/31/31 81/81/81 62/62/62
f 33/33/33 57/57/57 81/81/81
